<svg width="13" height="13" viewBox="0 0 13 13" fill="none" xmlns="http://www.w3.org/2000/svg">
<path d="M9.38926 1.39084C9.51226 1.26349 9.65939 1.16191 9.82206 1.09203C9.98473 1.02215 10.1597 0.985373 10.3367 0.983834C10.5138 0.982296 10.6893 1.01603 10.8532 1.08307C11.0171 1.15011 11.1659 1.24912 11.2911 1.37431C11.4163 1.4995 11.5153 1.64837 11.5824 1.81223C11.6494 1.97609 11.6831 2.15166 11.6816 2.3287C11.6801 2.50574 11.6433 2.6807 11.5734 2.84337C11.5035 3.00605 11.4019 3.15317 11.2746 3.27617L7.2346 7.31617C7.12956 7.42118 6.99837 7.49622 6.8546 7.5335L4.52926 8.13617L5.13193 5.81017C5.16922 5.6664 5.24425 5.5352 5.34926 5.43017L9.38926 1.39084ZM11.9819 0.683502C11.7653 0.466806 11.508 0.294913 11.2249 0.177637C10.9418 0.0603612 10.6384 0 10.3319 0C10.0255 0 9.72206 0.0603612 9.43895 0.177637C9.15584 0.294913 8.8986 0.466806 8.68193 0.683502L4.64193 4.7235C4.41095 4.9546 4.24592 5.24322 4.16393 5.5595L3.34793 8.70817C3.32612 8.79244 3.32669 8.88094 3.34957 8.96492C3.37246 9.0489 3.41688 9.12546 3.47843 9.18701C3.53998 9.24856 3.61653 9.29297 3.70051 9.31586C3.78449 9.33875 3.873 9.33931 3.95726 9.3175L7.10593 8.5015C7.42228 8.41932 7.71092 8.25406 7.94193 8.02284L11.9819 3.98284C12.4194 3.54527 12.6651 2.95188 12.6651 2.33317C12.6651 1.71445 12.4194 1.12107 11.9819 0.683502ZM5.9986 0.666835C6.53593 0.666835 7.05726 0.737502 7.5526 0.870168L6.70593 1.71683C5.66707 1.56843 4.60784 1.75066 3.6783 2.2377C2.74875 2.72474 1.99601 3.49191 1.52671 4.43053C1.0574 5.36915 0.895312 6.43164 1.06341 7.4675C1.23151 8.50336 1.72127 9.46007 2.46331 10.2021C3.20536 10.9442 4.16207 11.4339 5.19793 11.602C6.23379 11.7701 7.29628 11.608 8.2349 11.1387C9.17353 10.6694 9.94069 9.91668 10.4277 8.98713C10.9148 8.05759 11.097 6.99837 10.9486 5.9595L11.7953 5.11283C12.12 6.32371 12.0572 7.60587 11.6158 8.77925C11.1745 9.95263 10.3766 10.9583 9.33441 11.655C8.29218 12.3517 7.0579 12.7044 5.80491 12.6637C4.55193 12.6229 3.34318 12.1907 2.34843 11.4277C1.35369 10.6648 0.62291 9.60937 0.258735 8.40979C-0.105439 7.2102 -0.0847175 5.92667 0.317991 4.73946C0.720699 3.55225 1.48516 2.52101 2.50402 1.79055C3.52288 1.0601 4.74495 0.667128 5.9986 0.666835Z" fill="#737373"/>
</svg>
