<svg width="20" height="20" viewBox="0 0 20 20" fill="none" xmlns="http://www.w3.org/2000/svg">
<path d="M10 6.00023C10.1326 6.00023 10.2598 6.05291 10.3536 6.14668C10.4473 6.24044 10.5 6.36762 10.5 6.50023V11.5002C10.5 11.6328 10.4473 11.76 10.3536 11.8538C10.2598 11.9476 10.1326 12.0002 10 12.0002C9.86739 12.0002 9.74021 11.9476 9.64645 11.8538C9.55268 11.76 9.5 11.6328 9.5 11.5002V6.50023C9.5 6.36762 9.55268 6.24044 9.64645 6.14668C9.74021 6.05291 9.86739 6.00023 10 6.00023ZM10 14.5002C10.1989 14.5002 10.3897 14.4212 10.5303 14.2806C10.671 14.1399 10.75 13.9491 10.75 13.7502C10.75 13.5513 10.671 13.3606 10.5303 13.2199C10.3897 13.0792 10.1989 13.0002 10 13.0002C9.80109 13.0002 9.61032 13.0792 9.46967 13.2199C9.32902 13.3606 9.25 13.5513 9.25 13.7502C9.25 13.9491 9.32902 14.1399 9.46967 14.2806C9.61032 14.4212 9.80109 14.5002 10 14.5002ZM9.723 2.08423C9.80506 2.02962 9.90143 2.00049 10 2.00049C10.0986 2.00049 10.1949 2.02962 10.277 2.08423C12.1649 3.35693 14.3169 4.1847 16.571 4.50523C16.6901 4.52232 16.799 4.58177 16.8778 4.6727C16.9566 4.76362 17 4.87991 17 5.00023V9.50023C17 13.3912 14.693 16.2302 10.18 17.9672C10.0642 18.0119 9.93584 18.0119 9.82 17.9672C5.308 16.2302 3 13.3902 3 9.50023V5.00023C3.00002 4.87976 3.04353 4.76335 3.12253 4.67241C3.20154 4.58146 3.31072 4.5221 3.43 4.50523C5.68377 4.18456 7.83543 3.35678 9.723 2.08423ZM9.599 3.34623C7.87992 4.38556 5.98048 5.09187 4 5.42823V9.50023C4 12.8922 5.968 15.3632 10 16.9632C14.032 15.3632 16 12.8922 16 9.50023V5.42823C14.0192 5.09199 12.1194 4.38568 10.4 3.34623L10 3.09723L9.599 3.34623Z" fill="#C5304E"/>
</svg>
