<svg width="200" height="200" viewBox="0 0 200 200" fill="none" xmlns="http://www.w3.org/2000/svg">
<circle cx="100" cy="100" r="100" fill="#13AE94"/>
<path fill-rule="evenodd" clip-rule="evenodd" d="M133.002 74.9541L101.243 62.2389C100.447 61.9204 99.5528 61.9203 98.7573 62.2389L66.9981 74.9541C65.7885 75.4384 65 76.5772 65 77.8401V93.2972C65 114.58 78.3403 133.725 98.7753 141.768C99.5602 142.077 100.44 142.077 101.225 141.768C121.659 133.726 135 114.581 135 93.2972V77.8401C135 76.5772 134.212 75.4384 133.002 74.9541ZM98.1196 106.349L114.494 90.5596C115.981 89.1251 118.393 89.1249 119.881 90.5596C121.369 91.9943 121.369 94.3201 119.881 95.7546L100.813 114.141C99.3253 115.576 96.9133 115.576 95.4259 114.141L84.7794 103.875C83.2916 102.44 83.2916 100.114 84.7794 98.68C86.2672 97.2455 88.6792 97.2453 90.1669 98.68L98.1196 106.349Z" fill="white"/>
</svg>
