<svg width="648" height="1024" viewBox="0 0 648 1024" fill="none" xmlns="http://www.w3.org/2000/svg">
<path d="M203.172 1339C448.482 1339 647.345 960.681 647.345 494C647.345 27.3194 448.482 -351 203.172 -351C-42.1372 -351 -241 27.3194 -241 494C-241 960.681 -42.1372 1339 203.172 1339Z" fill="#D9EDF1"/>
<path d="M204.092 1227.29C419.914 1227.29 594.872 903.584 594.872 504.278C594.872 104.971 419.914 -218.731 204.092 -218.731C-11.7295 -218.731 -186.688 104.971 -186.688 504.278C-186.688 903.584 -11.7295 1227.29 204.092 1227.29Z" fill="#B0DAE2"/>
<ellipse cx="666.903" cy="370.546" rx="666.903" ry="370.546" transform="matrix(0 1 1 0 -202.199 -92.6157)" fill="#0087A2"/>
<path d="M470.956 724.527H53.4423C51.8432 724.527 50.5469 723.23 50.5469 721.631C50.5469 720.032 51.8432 718.736 53.4423 718.736H470.956C472.555 718.736 473.851 720.032 473.851 721.631C473.851 723.23 472.555 724.527 470.956 724.527Z" fill="#005161"/>
<path d="M54.9976 411.524C55.0188 411.251 55.0328 410.977 55.0328 410.7C55.0328 404.891 50.3245 400.183 44.5164 400.183C38.7083 400.183 34 404.891 34 410.7C34 410.977 34.014 411.251 34.0352 411.524H54.9976Z" fill="#B0DAE2"/>
<path d="M89.5523 411.524C89.5735 411.251 89.5875 410.977 89.5875 410.7C89.5875 404.891 84.8792 400.183 79.0711 400.183C73.263 400.183 68.5547 404.891 68.5547 410.7C68.5547 410.977 68.5687 411.251 68.5899 411.524H89.5523Z" fill="#B0DAE2"/>
<path d="M98.49 411.524C98.5199 411.253 98.5366 410.979 98.5366 410.7C98.5366 406.593 95.2072 403.264 91.1003 403.264C86.9935 403.264 83.6641 406.593 83.6641 410.7C83.6641 410.979 83.6807 411.253 83.7106 411.524H98.49Z" fill="#B0DAE2"/>
<path d="M77.4418 411.525C77.5233 410.883 77.5654 410.229 77.5654 409.565C77.5654 401.056 70.6679 394.159 62.1596 394.159C53.6512 394.159 46.7539 401.057 46.7539 409.565C46.7539 410.229 46.796 410.883 46.8775 411.525H77.4418Z" fill="#B0DAE2"/>
<path d="M314.119 291.367C314.14 291.095 314.154 290.82 314.154 290.543C314.154 284.735 309.446 280.026 303.638 280.026C297.829 280.026 293.121 284.735 293.121 290.543C293.121 290.82 293.135 291.095 293.156 291.367H314.119Z" fill="#B0DAE2"/>
<path d="M348.662 291.367C348.683 291.095 348.697 290.82 348.697 290.543C348.697 284.735 343.989 280.026 338.18 280.026C332.372 280.026 327.664 284.735 327.664 290.543C327.664 290.82 327.678 291.095 327.699 291.367H348.662Z" fill="#B0DAE2"/>
<path d="M336.571 291.366C336.652 290.724 336.694 290.07 336.694 289.406C336.694 280.897 329.797 274 321.289 274C312.78 274 305.883 280.898 305.883 289.406C305.883 290.07 305.925 290.724 306.006 291.366H336.571Z" fill="#B0DAE2"/>
<path d="M427.962 382.171C429.662 375.459 429.942 368.68 428.971 362.218L431.024 361.909L435.078 361.303L435.13 361.292C434.03 353.895 431.502 346.843 427.717 340.521L422.377 343.702C418.95 337.983 414.433 332.913 408.967 328.896L412.674 323.887C406.894 319.57 400.164 316.305 392.743 314.425L391.211 320.472C384.476 318.765 377.72 318.492 371.258 319.462L370.332 313.304C362.935 314.403 355.877 316.954 349.561 320.716L352.742 326.057C347.023 329.483 341.954 334 337.936 339.466L332.927 335.759C328.61 341.54 325.345 348.269 323.464 355.691L329.512 357.223C327.805 363.958 327.531 370.713 328.502 377.176L324.144 377.826L322.367 378.107L322.344 378.102C323.443 385.498 325.994 392.556 329.756 398.872L335.097 395.691C338.523 401.411 343.062 406.486 348.528 410.503L344.821 415.512C350.602 419.829 357.309 423.089 364.73 424.969L366.263 418.922C372.997 420.628 379.776 420.908 386.238 419.938L386.95 424.725L387.164 426.095C394.561 424.996 401.595 422.439 407.911 418.677L404.731 413.337C410.45 409.911 415.525 405.371 419.566 399.911L424.574 403.617C428.868 397.831 432.128 391.124 434.008 383.703L427.962 382.171ZM371.963 396.428C357.189 392.684 348.261 377.697 352.005 362.923C355.743 348.172 370.73 339.245 385.505 342.988C400.256 346.726 409.183 361.713 405.445 376.465C401.701 391.239 386.714 400.166 371.963 396.428Z" stroke="#E6F3F6" stroke-width="4" stroke-miterlimit="10" stroke-linejoin="round"/>
<path d="M451.727 437.466C449.456 434.615 446.704 432.337 443.686 430.685L444.211 429.726L445.248 427.834L445.26 427.809C441.809 425.913 438.048 424.725 434.192 424.297L433.824 427.549C430.336 427.163 426.771 427.441 423.346 428.452L422.428 425.302C418.776 426.349 415.264 428.129 412.11 430.641L414.157 433.21C411.295 435.489 409.028 438.233 407.376 441.251L404.499 439.677C402.603 443.128 401.424 446.899 400.988 450.745L404.24 451.113C403.854 454.602 404.132 458.167 405.142 461.592L401.993 462.51C403.04 466.162 404.82 469.674 407.332 472.828L409.901 470.781C412.18 473.642 414.924 475.91 417.942 477.562L416.826 479.596L416.378 480.43L416.368 480.438C419.818 482.334 423.589 483.514 427.435 483.949L427.804 480.697C431.293 481.084 434.866 480.798 438.292 479.787L439.21 482.937C442.862 481.89 446.365 480.117 449.518 477.606L447.472 475.037C450.333 472.758 452.61 470.005 454.262 466.988L456.496 468.215L457.138 468.562C459.035 465.111 460.204 461.348 460.64 457.502L457.388 457.133C457.775 453.644 457.489 450.071 456.488 446.637L459.637 445.719C458.58 442.075 456.808 438.572 454.296 435.419L451.727 437.466ZM439.859 465.48C433.583 470.48 424.456 469.446 419.457 463.169C414.465 456.902 415.499 447.776 421.776 442.776C428.043 437.785 437.169 438.818 442.161 445.085C447.16 451.362 446.127 460.489 439.859 465.48Z" stroke="#E6F3F6" stroke-width="4" stroke-miterlimit="10" stroke-linejoin="round"/>
<path d="M219.911 587.17C217.29 583.879 214.114 581.251 210.631 579.345L211.237 578.238L212.434 576.055L212.448 576.025C208.466 573.838 204.126 572.467 199.676 571.974L199.251 575.726C195.225 575.28 191.112 575.601 187.159 576.767L186.099 573.133C181.886 574.341 177.832 576.395 174.194 579.293L176.555 582.258C173.253 584.888 170.637 588.055 168.73 591.538L165.411 589.721C163.223 593.703 161.862 598.055 161.359 602.493L165.112 602.918C164.666 606.944 164.987 611.057 166.153 615.01L162.519 616.07C163.727 620.283 165.781 624.337 168.679 627.976L171.644 625.614C174.274 628.916 177.441 631.533 180.923 633.439L179.636 635.786L179.118 636.749L179.107 636.758C183.089 638.946 187.44 640.308 191.879 640.81L192.304 637.058C196.33 637.503 200.454 637.174 204.407 636.007L205.467 639.642C209.68 638.433 213.723 636.388 217.361 633.49L215 630.525C218.301 627.895 220.929 624.72 222.836 621.237L225.413 622.653L226.155 623.053C228.343 619.072 229.693 614.729 230.196 610.29L226.443 609.865C226.889 605.839 226.559 601.715 225.404 597.753L229.038 596.693C227.819 592.489 225.773 588.446 222.875 584.808L219.911 587.17ZM206.216 619.498C198.973 625.267 188.441 624.074 182.672 616.831C176.911 609.599 178.105 599.067 185.348 593.298C192.58 587.537 203.111 588.73 208.872 595.963C214.641 603.206 213.448 613.737 206.216 619.498Z" stroke="#00657A" stroke-width="4" stroke-miterlimit="10"/>
<path d="M378.511 369.159C375.572 351.751 348.765 343.893 349.29 355.254L226.402 355.974C217.891 356.024 210.989 363.681 210.982 373.086L210.727 696.281C210.719 706.024 217.74 713.99 226.415 714.064L351.865 715.14C352.643 716.775 354.101 718.263 356.397 719.505C370.783 719.812 377.684 712.707 380.205 704.675C381.025 702.519 381.472 700.136 381.452 697.624C380.949 693.417 379.42 373.241 378.511 369.159Z" fill="#006C82"/>
<path d="M355.063 719.558L211.066 718.63C202.08 718.572 194.812 710.391 194.828 700.366L195.369 367.988C195.384 358.322 202.538 350.469 211.349 350.441L352.549 349.982C361.431 349.953 368.694 357.794 368.769 367.505L371.328 701.419C371.406 711.491 364.122 719.616 355.063 719.558Z" fill="white"/>
<path d="M357.046 717.139C356.448 717.22 355.836 717.258 355.227 717.253L211.273 716.164C203.552 716.105 197.241 708.933 197.254 700.183L197.751 368.17C197.764 359.732 203.975 352.844 211.549 352.812L352.74 352.197C352.96 352.197 353.184 352.201 353.403 352.211C356.956 352.376 360.277 353.995 362.758 356.765C365.295 359.596 366.706 363.348 366.736 367.335L369.261 701.588C369.322 709.51 364.088 716.196 357.046 717.139Z" fill="black"/>
<path d="M361.78 369.016L364.209 702.104L202.039 701.133L202.453 369.016H361.78Z" fill="white"/>
<path d="M305.367 536.627H261.952C258.279 536.627 255.273 533.622 255.273 529.948C255.273 526.275 258.279 523.27 261.952 523.27H305.367C309.04 523.27 312.045 526.275 312.045 529.948C312.045 533.622 309.04 536.627 305.367 536.627Z" fill="#13AE94"/>
<path d="M338.388 487.045H226.132C222.459 487.045 219.453 484.039 219.453 480.366C219.453 476.693 222.459 473.687 226.132 473.687H338.388C342.061 473.687 345.067 476.693 345.067 480.366C345.067 484.039 342.061 487.045 338.388 487.045Z" fill="#D9EDF1"/>
<path d="M338.388 508.556H226.132C222.459 508.556 219.453 505.55 219.453 501.877C219.453 498.203 222.459 495.198 226.132 495.198H338.388C342.061 495.198 345.067 498.203 345.067 501.877C345.067 505.55 342.061 508.556 338.388 508.556Z" fill="#D9EDF1"/>
<path d="M247.093 502.468C247.093 503.766 246.041 504.819 244.742 504.819C243.443 504.819 242.391 503.766 242.391 502.468C242.391 501.169 243.444 500.116 244.742 500.116C246.041 500.116 247.093 501.169 247.093 502.468Z" fill="#0087A2"/>
<path d="M255.093 502.96C255.363 501.689 254.552 500.441 253.282 500.171C252.012 499.9 250.763 500.711 250.493 501.981C250.223 503.252 251.034 504.5 252.304 504.77C253.574 505.04 254.823 504.23 255.093 502.96Z" fill="#0087A2"/>
<path d="M262.527 504.13C263.445 503.212 263.445 501.723 262.527 500.805C261.609 499.887 260.12 499.887 259.202 500.805C258.283 501.723 258.283 503.212 259.202 504.13C260.12 505.049 261.609 505.049 262.527 504.13Z" fill="#0087A2"/>
<path d="M270.586 504.132C271.504 503.214 271.504 501.725 270.586 500.807C269.667 499.888 268.179 499.888 267.26 500.807C266.342 501.725 266.342 503.214 267.26 504.132C268.179 505.05 269.667 505.05 270.586 504.132Z" fill="#0087A2"/>
<path d="M277.902 504.641C279.102 504.144 279.671 502.768 279.174 501.568C278.677 500.369 277.302 499.799 276.102 500.296C274.902 500.793 274.333 502.168 274.83 503.368C275.327 504.568 276.702 505.138 277.902 504.641Z" fill="#0087A2"/>
<path d="M287.336 503.041C287.634 501.777 286.852 500.511 285.588 500.212C284.324 499.914 283.058 500.696 282.759 501.96C282.461 503.224 283.243 504.49 284.507 504.789C285.771 505.087 287.037 504.305 287.336 503.041Z" fill="#0087A2"/>
<path d="M294.773 504.132C295.691 503.214 295.691 501.725 294.773 500.807C293.855 499.888 292.366 499.888 291.448 500.807C290.53 501.725 290.53 503.214 291.448 504.132C292.366 505.05 293.855 505.05 294.773 504.132Z" fill="#0087A2"/>
<path d="M302.843 504.132C303.762 503.214 303.762 501.725 302.843 500.807C301.925 499.888 300.436 499.888 299.518 500.807C298.6 501.725 298.6 503.214 299.518 504.132C300.436 505.05 301.925 505.05 302.843 504.132Z" fill="#0087A2"/>
<path d="M310.152 504.641C311.352 504.144 311.921 502.768 311.424 501.568C310.927 500.369 309.552 499.799 308.352 500.296C307.152 500.793 306.583 502.168 307.08 503.368C307.577 504.568 308.952 505.138 310.152 504.641Z" fill="#0087A2"/>
<path d="M300.54 447.44C310.617 437.363 310.618 421.025 300.54 410.947C290.463 400.87 274.125 400.87 264.047 410.947C253.97 421.025 253.97 437.363 264.047 447.44C274.125 457.518 290.463 457.518 300.54 447.44Z" fill="#D9EDF1"/>
<path d="M282.339 428.154C284.858 428.154 287.184 426.927 288.67 425.054C289.768 423.697 290.414 421.953 290.414 420.014C290.414 415.557 286.796 411.875 282.339 411.875C277.817 411.875 274.199 415.557 274.199 420.014C274.199 421.953 274.844 423.697 275.944 425.054C277.429 426.927 279.754 428.154 282.339 428.154Z" fill="#0087A2"/>
<path d="M296.642 442.657C296.642 447.793 267.957 447.793 267.957 442.657L267.966 436.67C269.1 428.487 294.311 428.143 296.648 436.67L296.642 442.657Z" fill="#0087A2"/>
<path d="M231.702 500.646V500.288C231.702 498.839 230.523 497.66 229.074 497.66C227.625 497.66 226.446 498.839 226.446 500.288V500.646H226.047V505.382C226.047 506.2 232.117 506.2 232.117 505.382V500.646H231.702ZM227.383 500.288C227.383 499.378 227.943 498.553 229.074 498.553C230.204 498.553 230.783 499.326 230.783 500.288V500.646H227.383V500.288ZM229.521 503.031V504.399C229.521 504.645 229.31 504.82 229.065 504.82C228.819 504.82 228.644 504.645 228.644 504.399V503.031C228.398 502.891 228.223 502.645 228.223 502.329C228.223 501.873 228.609 501.487 229.065 501.487C229.521 501.487 229.907 501.873 229.907 502.329C229.906 502.645 229.731 502.891 229.521 503.031Z" fill="#4D4D4D"/>
<path d="M229.073 479.877C229.605 479.877 230.096 479.618 230.409 479.223C230.641 478.936 230.777 478.568 230.777 478.16C230.777 477.219 230.014 476.442 229.073 476.442C228.119 476.442 227.355 477.219 227.355 478.16C227.355 478.569 227.491 478.937 227.724 479.223C228.037 479.618 228.528 479.877 229.073 479.877Z" fill="#4D4D4D"/>
<path d="M232.096 482.939C232.096 484.023 226.012 484.023 226.012 482.939L226.045 481.676C226.284 479.949 231.604 479.877 232.097 481.676L232.096 482.939Z" fill="#4D4D4D"/>
<path d="M268.396 482.325H243.796C242.718 482.325 241.836 481.443 241.836 480.365C241.836 479.286 242.718 478.405 243.796 478.405H268.396C269.474 478.405 270.356 479.287 270.356 480.365C270.356 481.443 269.474 482.325 268.396 482.325Z" fill="#0087A2"/>
<path d="M300.845 482.325H276.245C275.167 482.325 274.285 481.443 274.285 480.365C274.285 479.286 275.167 478.405 276.245 478.405H300.845C301.923 478.405 302.805 479.287 302.805 480.365C302.805 481.443 301.923 482.325 300.845 482.325Z" fill="#0087A2"/>
<path d="M249.18 605.533V654.195C249.18 659.603 315.347 659.603 315.347 654.195V605.533H249.18Z" fill="#D9EDF1"/>
<path d="M290.207 625.832C291.244 621.441 288.525 617.041 284.134 616.004C279.744 614.968 275.344 617.687 274.307 622.077C273.27 626.468 275.989 630.868 280.38 631.905C284.77 632.941 289.17 630.222 290.207 625.832Z" fill="#0087A2"/>
<path d="M282.263 648.519C280.413 648.519 278.914 647.02 278.914 645.17V626.434H285.611V645.17C285.611 647.02 284.112 648.519 282.263 648.519Z" fill="#0087A2"/>
<path d="M309.546 602.068H302.849V598.791C302.849 587.438 293.613 578.202 282.262 578.202C270.909 578.202 261.673 587.438 261.673 598.791V602.068H254.977V598.791C254.977 583.746 267.217 571.505 282.262 571.505C297.306 571.505 309.546 583.746 309.546 598.791V602.068Z" fill="#D9EDF1"/>
<path d="M414.929 510.633C397.87 528.906 370.65 543.882 341.522 550.263C341.513 552.208 341.465 562.986 341.243 612.665C340.947 678.935 404.017 711.319 413.808 716.29C423.295 711.923 487.161 679.589 487.457 613.318C487.679 563.64 487.727 552.862 487.736 550.916C458.666 544.276 431.824 529.058 414.929 510.633Z" fill="white"/>
<path d="M414.778 517.82C397.193 533.952 372.829 546.632 346.039 553.543L345.774 612.653C345.654 639.7 356.398 664.167 377.712 685.379C391.715 699.316 406.439 707.96 413.91 711.847C414.232 711.684 414.584 711.5 414.931 711.319V517.958C414.881 517.912 414.828 517.867 414.778 517.82Z" fill="#D9EDF1"/>
<path d="M414.93 517.957V711.318C422.699 707.277 436.82 698.922 450.343 685.703C471.844 664.682 482.808 640.312 482.928 613.265L483.192 554.154C456.541 547.025 432.358 534.18 414.93 517.957Z" fill="#B0DAE2"/>
<path d="M468.604 577.207C448.209 580.352 420.435 598.954 402.914 621.322C400.457 610.776 389.424 601.147 383.652 599.042L366.164 616.62C377.083 621.541 389.015 635.483 390.597 649.756L408.067 652.463C415.432 637.914 434.454 603.113 472.298 584.401C471.569 581.552 468.897 577.613 468.604 577.207Z" fill="#00657A"/>
<path d="M136.366 471.093L133.29 483.456L132.731 485.755C132.11 488.675 112.82 487.432 114.186 484.016L115.336 481.5L121.269 468.484L136.366 471.093Z" fill="#F7A58E"/>
<path d="M147.64 452.756C147.837 466.161 141.614 477.062 131.876 477.015C122.138 476.968 112.716 468.706 112.375 452.585C112.158 442.315 120.36 434.023 130.098 434.071C139.836 434.118 147.49 442.484 147.64 452.756Z" fill="#F7A58E"/>
<path d="M130.391 430.382C130.391 430.382 149.795 431.34 151.409 446.036C153.564 458.934 143.887 449.452 139.936 458.108C135.411 468.022 140.023 475.278 145.905 477.248C140.676 484.549 110.778 484.286 103.084 471.477C97.8139 455.41 105.27 431.274 130.391 430.382Z" fill="#002F39"/>
<path d="M143.996 457.579C144.157 459.569 142.675 461.314 140.685 461.475C138.695 461.637 136.951 460.155 136.789 458.165C136.628 456.175 138.11 454.431 140.1 454.269C142.09 454.107 143.834 455.589 143.996 457.579Z" fill="#F7A58E"/>
<path d="M141.028 706.977C141.938 706.013 146.228 705.998 146.62 707.423C147.012 708.847 146.256 709.865 148.066 712.124C147.024 712.425 143.328 712.453 142.197 712.124C141.066 711.795 140.118 707.94 141.028 706.977Z" fill="white"/>
<path d="M133.936 711.844H144.392C145.369 667.601 145.182 619.437 144.83 583.163C144.704 570.173 144.346 563.603 141.991 555.804C137.232 540.056 114.859 544.904 113.272 559.178C112.61 567.099 112.126 582.552 126.769 635.061C120.428 658.181 131.491 685.9 133.936 711.844Z" fill="#002F39"/>
<path d="M150.245 712.518C148.705 712.436 145.109 710.953 144.431 709.93C143.431 711.047 141.35 711.356 138.839 710.981C135.872 710.538 135.48 709.16 133.352 709.343C132.455 711.838 130.269 717.436 132.378 718.735C132.378 718.735 144.846 718.735 154.36 718.735C156.323 716.942 156.271 713.118 150.245 712.518Z" fill="white"/>
<path d="M87.7903 708.094C88.5548 707.284 92.1605 707.272 92.4897 708.469C92.8186 709.666 92.1835 710.521 93.7051 712.419C92.8294 712.672 89.7234 712.696 88.7729 712.419C87.8221 712.143 87.0258 708.903 87.7903 708.094Z" fill="white"/>
<path d="M122.245 558.773C120.106 542.462 91.0877 544.137 89.1587 558.38C88.4616 566.044 86.3331 577.579 91.786 634.503C80.2823 656.226 83.5329 687.396 80.0966 710.342C79.7171 713.833 89.6067 714.672 90.3746 711.56C100.914 668.99 115.641 621.229 121.115 585.812C123.101 572.973 123.302 566.852 122.245 558.773Z" fill="#002F39"/>
<path d="M95.5745 711.844C94.0345 711.762 91.7638 709.758 91.0858 708.734C90.0864 709.851 88.1785 711.356 85.6667 710.982C82.6999 710.539 82.3082 709.16 80.1802 709.344C79.2828 711.839 77.0971 717.437 79.2058 718.735C79.2058 718.735 91.0742 718.735 100.589 718.735C102.551 716.943 101.601 712.444 95.5745 711.844Z" fill="white"/>
<path d="M171.194 472.438L165.782 473.638C165.905 476.486 165.563 481.035 165.782 486.057L174.885 484.858C173.499 479.801 172.163 475.369 171.194 472.438Z" fill="#F7A58E"/>
<path d="M165.779 486.057C165.577 496.01 165.311 500.274 165.229 504.195L138.222 486.874C129.992 484.376 120.396 500.665 130.801 508.016C130.801 508.016 166.768 528.324 174.859 522.474C179.236 519.309 178.1 496.608 174.882 484.859L165.779 486.057Z" fill="white"/>
<path d="M173.631 467.146C171.13 464.213 165.639 465.236 165.223 465.315L165.751 473.427C165.874 477.432 170.841 477.568 172.865 474.115C172.865 474.115 175.797 470.034 173.631 467.146Z" fill="#F7A58E"/>
<path d="M167.885 466.082C166.063 457.246 164.223 458.431 164.223 458.431C164.223 458.431 164.518 461.553 165.341 467.062C165.958 470.183 168.11 468.301 167.885 466.082Z" fill="#F7A58E"/>
<path d="M144.603 510.151C146.437 501.226 147.421 492.414 138.222 486.873C132.768 483.588 115.237 481.242 107.04 483.954C98.7802 487.646 100.566 503.745 99.0191 529.169C93.3275 541.856 90.8531 546.024 89.168 558.382C89.168 558.382 92.2129 567.693 113.665 567.705C123.406 567.711 137.752 566.845 144.279 561.876C143.628 553.449 140.104 545.33 138.635 533.399C138.635 533.399 144.471 511.175 144.603 510.151Z" fill="white"/>
<path d="M102.623 485.749C92.5548 493.436 82.734 505.524 78.0926 511.943C73.4515 518.363 61.4297 544.162 61.4297 544.162L69.0806 549.802L89.7755 521.604L115.058 500.867C123.831 491.912 112.43 478.262 102.623 485.749Z" fill="white"/>
<path d="M58.2266 550.702L63.1858 540.456C64.3525 543.537 70.0298 546.348 71.6601 546.289C71.6601 546.289 66.3276 553.963 65.0238 555.267C63.72 556.57 58.3343 554.363 58.2266 550.702Z" fill="#F7A58E"/>
<path d="M66.2842 553.557C66.2643 553.634 66.2866 553.737 66.2667 553.814C66.0177 557.542 63.1516 559.307 62.376 559.725C62.3144 559.774 62.2453 559.789 62.1765 559.804C64.8722 559.264 65.6795 562.876 64.308 563.709C60.3406 566.394 54.6868 562.7 54.2084 560.46C53.7228 558.186 58.2422 550.662 58.2422 550.662C60.5473 548.8 66.4477 549.09 66.2842 553.557Z" fill="#F7A58E"/>
<path d="M66.2662 553.813C66.1072 558.027 62.3089 559.761 62.2398 559.776C60.0178 559.714 59.2261 559.58 57.1055 559.586C58.4894 558.91 61.328 557.115 60.229 553.628C62.4026 551.965 65.6722 553.419 66.2662 553.813Z" fill="#E6856A"/>
<path d="M66.321 553.334C66.9052 556.813 66.6584 561.77 65.8312 563.951C65.8312 563.951 63.6983 564.063 63.8981 560.035C63.95 558.987 63.7989 556.71 62.7619 555.953C59.569 553.843 59.0554 551.908 60.2266 550.32C61.7873 548.204 66.1982 550.351 66.321 553.334Z" fill="#F7A58E"/>
<path d="M56.4481 562.841C58.1803 564.042 62.7656 566.371 63.4893 565.796C64.2131 565.221 60.5465 561.319 58.1801 560.802C55.8133 560.286 55.5606 562.226 56.4481 562.841Z" fill="#F7A58E"/>
</svg>
