<svg width="1151" height="891" viewBox="0 0 1151 891" fill="none" xmlns="http://www.w3.org/2000/svg">
<g clip-path="url(#clip0_4027_3879)">
<path d="M957 573C961.971 573 966 568.971 966 564C966 559.029 961.971 555 957 555C952.029 555 948 559.029 948 564C948 568.971 952.029 573 957 573Z" fill="#0087A2"/>
<path d="M278.5 479C280.985 479 283 476.985 283 474.5C283 472.015 280.985 470 278.5 470C276.015 470 274 472.015 274 474.5C274 476.985 276.015 479 278.5 479Z" fill="#0087A2"/>
<path d="M275 398C279.971 398 284 393.971 284 389C284 384.029 279.971 380 275 380C270.029 380 266 384.029 266 389C266 393.971 270.029 398 275 398Z" fill="#0087A2"/>
<path d="M605 51C609.971 51 614 46.9706 614 42C614 37.0294 609.971 33 605 33C600.029 33 596 37.0294 596 42C596 46.9706 600.029 51 605 51Z" fill="#0087A2"/>
<path d="M477 191C481.971 191 486 186.971 486 182C486 177.029 481.971 173 477 173C472.029 173 468 177.029 468 182C468 186.971 472.029 191 477 191Z" fill="#0087A2"/>
<path d="M587.5 165C589.985 165 592 162.985 592 160.5C592 158.015 589.985 156 587.5 156C585.015 156 583 158.015 583 160.5C583 162.985 585.015 165 587.5 165Z" fill="#0087A2"/>
<path d="M443.5 106C445.985 106 448 103.985 448 101.5C448 99.0147 445.985 97 443.5 97C441.015 97 439 99.0147 439 101.5C439 103.985 441.015 106 443.5 106Z" fill="#0087A2"/>
<path d="M440 25C444.971 25 449 20.9706 449 16C449 11.0294 444.971 7 440 7C435.029 7 431 11.0294 431 16C431 20.9706 435.029 25 440 25Z" fill="#0087A2"/>
<path d="M1140 79C1144.97 79 1149 74.9706 1149 70C1149 65.0294 1144.97 61 1140 61C1135.03 61 1131 65.0294 1131 70C1131 74.9706 1135.03 79 1140 79Z" fill="#0087A2"/>
<path d="M1012 219C1016.97 219 1021 214.971 1021 210C1021 205.029 1016.97 201 1012 201C1007.03 201 1003 205.029 1003 210C1003 214.971 1007.03 219 1012 219Z" fill="#0087A2"/>
<path d="M1122.5 193C1124.99 193 1127 190.985 1127 188.5C1127 186.015 1124.99 184 1122.5 184C1120.01 184 1118 186.015 1118 188.5C1118 190.985 1120.01 193 1122.5 193Z" fill="#0087A2"/>
<path d="M978.5 134C980.985 134 983 131.985 983 129.5C983 127.015 980.985 125 978.5 125C976.015 125 974 127.015 974 129.5C974 131.985 976.015 134 978.5 134Z" fill="#0087A2"/>
<path d="M975 53C979.971 53 984 48.9706 984 44C984 39.0294 979.971 35 975 35C970.029 35 966 39.0294 966 44C966 48.9706 970.029 53 975 53Z" fill="#0087A2"/>
<path d="M841 44C845.971 44 850 39.9706 850 35C850 30.0294 845.971 26 841 26C836.029 26 832 30.0294 832 35C832 39.9706 836.029 44 841 44Z" fill="#0087A2"/>
<path d="M713 184C717.971 184 722 179.971 722 175C722 170.029 717.971 166 713 166C708.029 166 704 170.029 704 175C704 179.971 708.029 184 713 184Z" fill="#0087A2"/>
<path d="M823.5 158C825.985 158 828 155.985 828 153.5C828 151.015 825.985 149 823.5 149C821.015 149 819 151.015 819 153.5C819 155.985 821.015 158 823.5 158Z" fill="#0087A2"/>
<path d="M679.5 99C681.985 99 684 96.9853 684 94.5C684 92.0147 681.985 90 679.5 90C677.015 90 675 92.0147 675 94.5C675 96.9853 677.015 99 679.5 99Z" fill="#0087A2"/>
<path d="M676 18C680.971 18 685 13.9706 685 9C685 4.02944 680.971 0 676 0C671.029 0 667 4.02944 667 9C667 13.9706 671.029 18 676 18Z" fill="#0087A2"/>
<path d="M933 237C937.971 237 942 232.971 942 228C942 223.029 937.971 219 933 219C928.029 219 924 223.029 924 228C924 232.971 928.029 237 933 237Z" fill="#0087A2"/>
<path d="M805 377C809.971 377 814 372.971 814 368C814 363.029 809.971 359 805 359C800.029 359 796 363.029 796 368C796 372.971 800.029 377 805 377Z" fill="#0087A2"/>
<path d="M915.5 351C917.985 351 920 348.985 920 346.5C920 344.015 917.985 342 915.5 342C913.015 342 911 344.015 911 346.5C911 348.985 913.015 351 915.5 351Z" fill="#0087A2"/>
<path d="M771.5 292C773.985 292 776 289.985 776 287.5C776 285.015 773.985 283 771.5 283C769.015 283 767 285.015 767 287.5C767 289.985 769.015 292 771.5 292Z" fill="#0087A2"/>
<path d="M768 211C772.971 211 777 206.971 777 202C777 197.029 772.971 193 768 193C763.029 193 759 197.029 759 202C759 206.971 763.029 211 768 211Z" fill="#0087A2"/>
<path d="M1085 301C1089.97 301 1094 296.971 1094 292C1094 287.029 1089.97 283 1085 283C1080.03 283 1076 287.029 1076 292C1076 296.971 1080.03 301 1085 301Z" fill="#0087A2"/>
<path d="M957 441C961.971 441 966 436.971 966 432C966 427.029 961.971 423 957 423C952.029 423 948 427.029 948 432C948 436.971 952.029 441 957 441Z" fill="#0087A2"/>
<path d="M1067.5 415C1069.99 415 1072 412.985 1072 410.5C1072 408.015 1069.99 406 1067.5 406C1065.01 406 1063 408.015 1063 410.5C1063 412.985 1065.01 415 1067.5 415Z" fill="#0087A2"/>
<path d="M1022.5 486C1024.99 486 1027 483.985 1027 481.5C1027 479.015 1024.99 477 1022.5 477C1020.01 477 1018 479.015 1018 481.5C1018 483.985 1020.01 486 1022.5 486Z" fill="#0087A2"/>
<path d="M1138 504C1142.97 504 1147 499.971 1147 495C1147 490.029 1142.97 486 1138 486C1133.03 486 1129 490.029 1129 495C1129 499.971 1133.03 504 1138 504Z" fill="#0087A2"/>
<path d="M1122.5 632C1124.99 632 1127 629.985 1127 627.5C1127 625.015 1124.99 623 1122.5 623C1120.01 623 1118 625.015 1118 627.5C1118 629.985 1120.01 632 1122.5 632Z" fill="#0087A2"/>
<path d="M1031.5 642C1033.99 642 1036 639.985 1036 637.5C1036 635.015 1033.99 633 1031.5 633C1029.01 633 1027 635.015 1027 637.5C1027 639.985 1029.01 642 1031.5 642Z" fill="#0087A2"/>
<path d="M1080.5 555C1082.99 555 1085 552.985 1085 550.5C1085 548.015 1082.99 546 1080.5 546C1078.01 546 1076 548.015 1076 550.5C1076 552.985 1078.01 555 1080.5 555Z" fill="#0087A2"/>
<path d="M174 746C178.971 746 183 741.971 183 737C183 732.029 178.971 728 174 728C169.029 728 165 732.029 165 737C165 741.971 169.029 746 174 746Z" fill="#0087A2"/>
<path d="M46 886C50.9706 886 55 881.971 55 877C55 872.029 50.9706 868 46 868C41.0294 868 37 872.029 37 877C37 881.971 41.0294 886 46 886Z" fill="#0087A2"/>
<path d="M156.5 860C158.985 860 161 857.985 161 855.5C161 853.015 158.985 851 156.5 851C154.015 851 152 853.015 152 855.5C152 857.985 154.015 860 156.5 860Z" fill="#0087A2"/>
<path d="M12.5 801C14.9853 801 17 798.985 17 796.5C17 794.015 14.9853 792 12.5 792C10.0147 792 8 794.015 8 796.5C8 798.985 10.0147 801 12.5 801Z" fill="#0087A2"/>
<path d="M9 720C13.9706 720 18 715.971 18 711C18 706.029 13.9706 702 9 702C4.02944 702 0 706.029 0 711C0 715.971 4.02944 720 9 720Z" fill="#0087A2"/>
<path d="M178 466C182.971 466 187 461.971 187 457C187 452.029 182.971 448 178 448C173.029 448 169 452.029 169 457C169 461.971 173.029 466 178 466Z" fill="#0087A2"/>
<path d="M50 606C54.9706 606 59 601.971 59 597C59 592.029 54.9706 588 50 588C45.0294 588 41 592.029 41 597C41 601.971 45.0294 606 50 606Z" fill="#0087A2"/>
<path d="M160.5 580C162.985 580 165 577.985 165 575.5C165 573.015 162.985 571 160.5 571C158.015 571 156 573.015 156 575.5C156 577.985 158.015 580 160.5 580Z" fill="#0087A2"/>
<path d="M16.5 521C18.9853 521 21 518.985 21 516.5C21 514.015 18.9853 512 16.5 512C14.0147 512 12 514.015 12 516.5C12 518.985 14.0147 521 16.5 521Z" fill="#0087A2"/>
<path d="M13 440C17.9706 440 22 435.971 22 431C22 426.029 17.9706 422 13 422C8.02944 422 4 426.029 4 431C4 435.971 8.02944 440 13 440Z" fill="#0087A2"/>
<path d="M215 58C219.971 58 224 53.9706 224 49C224 44.0294 219.971 40 215 40C210.029 40 206 44.0294 206 49C206 53.9706 210.029 58 215 58Z" fill="#0087A2"/>
<path d="M87 198C91.9706 198 96 193.971 96 189C96 184.029 91.9706 180 87 180C82.0294 180 78 184.029 78 189C78 193.971 82.0294 198 87 198Z" fill="#0087A2"/>
<path d="M197.5 172C199.985 172 202 169.985 202 167.5C202 165.015 199.985 163 197.5 163C195.015 163 193 165.015 193 167.5C193 169.985 195.015 172 197.5 172Z" fill="#0087A2"/>
<path d="M53.5 113C55.9853 113 58 110.985 58 108.5C58 106.015 55.9853 104 53.5 104C51.0147 104 49 106.015 49 108.5C49 110.985 51.0147 113 53.5 113Z" fill="#0087A2"/>
<path d="M50 32C54.9706 32 59 27.9706 59 23C59 18.0294 54.9706 14 50 14C45.0294 14 41 18.0294 41 23C41 27.9706 45.0294 32 50 32Z" fill="#0087A2"/>
<path d="M440 148C444.971 148 449 143.971 449 139C449 134.029 444.971 130 440 130C435.029 130 431 134.029 431 139C431 143.971 435.029 148 440 148Z" fill="#0087A2"/>
<path d="M312 288C316.971 288 321 283.971 321 279C321 274.029 316.971 270 312 270C307.029 270 303 274.029 303 279C303 283.971 307.029 288 312 288Z" fill="#0087A2"/>
<path d="M422.5 262C424.985 262 427 259.985 427 257.5C427 255.015 424.985 253 422.5 253C420.015 253 418 255.015 418 257.5C418 259.985 420.015 262 422.5 262Z" fill="#0087A2"/>
<path d="M278.5 203C280.985 203 283 200.985 283 198.5C283 196.015 280.985 194 278.5 194C276.015 194 274 196.015 274 198.5C274 200.985 276.015 203 278.5 203Z" fill="#0087A2"/>
<path d="M275 122C279.971 122 284 117.971 284 113C284 108.029 279.971 104 275 104C270.029 104 266 108.029 266 113C266 117.971 270.029 122 275 122Z" fill="#0087A2"/>
<path d="M211 266C215.971 266 220 261.971 220 257C220 252.029 215.971 248 211 248C206.029 248 202 252.029 202 257C202 261.971 206.029 266 211 266Z" fill="#0087A2"/>
<path d="M83 406C87.9706 406 92 401.971 92 397C92 392.029 87.9706 388 83 388C78.0294 388 74 392.029 74 397C74 401.971 78.0294 406 83 406Z" fill="#0087A2"/>
<path d="M193.5 380C195.985 380 198 377.985 198 375.5C198 373.015 195.985 371 193.5 371C191.015 371 189 373.015 189 375.5C189 377.985 191.015 380 193.5 380Z" fill="#0087A2"/>
<path d="M400.5 384C402.985 384 405 381.985 405 379.5C405 377.015 402.985 375 400.5 375C398.015 375 396 377.015 396 379.5C396 381.985 398.015 384 400.5 384Z" fill="#0087A2"/>
<path d="M49.5 321C51.9853 321 54 318.985 54 316.5C54 314.015 51.9853 312 49.5 312C47.0147 312 45 314.015 45 316.5C45 318.985 47.0147 321 49.5 321Z" fill="#0087A2"/>
<path d="M46 240C50.9706 240 55 235.971 55 231C55 226.029 50.9706 222 46 222C41.0294 222 37 226.029 37 231C37 235.971 41.0294 240 46 240Z" fill="#0087A2"/>
<path d="M270 595C274.971 595 279 590.971 279 586C279 581.029 274.971 577 270 577C265.029 577 261 581.029 261 586C261 590.971 265.029 595 270 595Z" fill="#0087A2"/>
<path d="M367 834C371.971 834 376 829.971 376 825C376 820.029 371.971 816 367 816C362.029 816 358 820.029 358 825C358 829.971 362.029 834 367 834Z" fill="#0087A2"/>
<path d="M477.5 808C479.985 808 482 805.985 482 803.5C482 801.015 479.985 799 477.5 799C475.015 799 473 801.015 473 803.5C473 805.985 475.015 808 477.5 808Z" fill="#0087A2"/>
<path d="M333.5 749C335.985 749 338 746.985 338 744.5C338 742.015 335.985 740 333.5 740C331.015 740 329 742.015 329 744.5C329 746.985 331.015 749 333.5 749Z" fill="#0087A2"/>
<path d="M330 668C334.971 668 339 663.971 339 659C339 654.029 334.971 650 330 650C325.029 650 321 654.029 321 659C321 663.971 325.029 668 330 668Z" fill="#0087A2"/>
<path d="M705 751C709.971 751 714 746.971 714 742C714 737.029 709.971 733 705 733C700.029 733 696 737.029 696 742C696 746.971 700.029 751 705 751Z" fill="#0087A2"/>
<path d="M577 891C581.971 891 586 886.971 586 882C586 877.029 581.971 873 577 873C572.029 873 568 877.029 568 882C568 886.971 572.029 891 577 891Z" fill="#0087A2"/>
<path d="M687.5 865C689.985 865 692 862.985 692 860.5C692 858.015 689.985 856 687.5 856C685.015 856 683 858.015 683 860.5C683 862.985 685.015 865 687.5 865Z" fill="#0087A2"/>
<path d="M543.5 806C545.985 806 548 803.985 548 801.5C548 799.015 545.985 797 543.5 797C541.015 797 539 799.015 539 801.5C539 803.985 541.015 806 543.5 806Z" fill="#0087A2"/>
<path d="M540 725C544.971 725 549 720.971 549 716C549 711.029 544.971 707 540 707C535.029 707 531 711.029 531 716C531 720.971 535.029 725 540 725Z" fill="#0087A2"/>
<path d="M862 801C866.971 801 871 796.971 871 792C871 787.029 866.971 783 862 783C857.029 783 853 787.029 853 792C853 796.971 857.029 801 862 801Z" fill="#0087A2"/>
<path d="M972.5 775C974.985 775 977 772.985 977 770.5C977 768.015 974.985 766 972.5 766C970.015 766 968 768.015 968 770.5C968 772.985 970.015 775 972.5 775Z" fill="#0087A2"/>
<path d="M828.5 716C830.985 716 833 713.985 833 711.5C833 709.015 830.985 707 828.5 707C826.015 707 824 709.015 824 711.5C824 713.985 826.015 716 828.5 716Z" fill="#0087A2"/>
<path d="M825 635C829.971 635 834 630.971 834 626C834 621.029 829.971 617 825 617C820.029 617 816 621.029 816 626C816 630.971 820.029 635 825 635Z" fill="#0087A2"/>
<path d="M1142 725C1146.97 725 1151 720.971 1151 716C1151 711.029 1146.97 707 1142 707C1137.03 707 1133 711.029 1133 716C1133 720.971 1137.03 725 1142 725Z" fill="#0087A2"/>
<path d="M1014 865C1018.97 865 1023 860.971 1023 856C1023 851.029 1018.97 847 1014 847C1009.03 847 1005 851.029 1005 856C1005 860.971 1009.03 865 1014 865Z" fill="#0087A2"/>
<path d="M1124.5 839C1126.99 839 1129 836.985 1129 834.5C1129 832.015 1126.99 830 1124.5 830C1122.01 830 1120 832.015 1120 834.5C1120 836.985 1122.01 839 1124.5 839Z" fill="#0087A2"/>
<path d="M915.5 508C917.985 508 920 505.985 920 503.5C920 501.015 917.985 499 915.5 499C913.015 499 911 501.015 911 503.5C911 505.985 913.015 508 915.5 508Z" fill="#0087A2"/>
<path d="M977 699C981.971 699 986 694.971 986 690C986 685.029 981.971 681 977 681C972.029 681 968 685.029 968 690C968 694.971 972.029 699 977 699Z" fill="#0087A2"/>
</g>
<defs>
<clipPath id="clip0_4027_3879">
<rect width="1151" height="891" fill="white"/>
</clipPath>
</defs>
</svg>
